<svg xmlns="http://www.w3.org/2000/svg" viewBox="0 0 512 320" role="img" aria-label="Fire card art">
  <defs>
    <linearGradient id="bg" x1="0" x2="1" y1="0" y2="1">
      <stop offset="0" stop-color="#31100c"/>
      <stop offset=".48" stop-color="#9e241c"/>
      <stop offset="1" stop-color="#f6a44f"/>
    </linearGradient>
    <radialGradient id="core" cx="50%" cy="48%" r="45%">
      <stop offset="0" stop-color="#fff4bf"/>
      <stop offset=".5" stop-color="#ff7a40"/>
      <stop offset="1" stop-color="#8a1018" stop-opacity=".2"/>
    </radialGradient>
  </defs>
  <rect width="512" height="320" rx="30" fill="url(#bg)"/>
  <path d="M69 244c58-93 87-112 70-177 57 31 72 69 62 114 35-28 49-65 47-111 72 68 116 150 68 214 54-21 80-64 89-113 51 72 25 139-39 171H126c-44-16-64-48-57-98z" fill="url(#core)" opacity=".95"/>
  <path d="M109 272c50-37 76-80 76-131 36 37 45 71 24 104 52-32 83-79 91-143 56 64 54 123-7 178 39-11 70-36 92-75 19 66-8 113-79 142H157c-30-14-46-39-48-75z" fill="#fff1b8" opacity=".28"/>
</svg>
