<svg xmlns="http://www.w3.org/2000/svg" viewBox="0 0 512 320" role="img" aria-label="Water card art">
  <defs>
    <linearGradient id="bg" x1="0" x2="1" y1="0" y2="1">
      <stop offset="0" stop-color="#061a34"/>
      <stop offset=".55" stop-color="#1268aa"/>
      <stop offset="1" stop-color="#7dfff1"/>
    </linearGradient>
    <radialGradient id="glow" cx="54%" cy="45%" r="52%">
      <stop offset="0" stop-color="#e6fffb"/>
      <stop offset=".48" stop-color="#45c7ff"/>
      <stop offset="1" stop-color="#0a2c5a" stop-opacity=".15"/>
    </radialGradient>
  </defs>
  <rect width="512" height="320" rx="30" fill="url(#bg)"/>
  <path d="M34 211c78-66 143-69 216-25 68 41 136 39 228-28-52 101-145 132-250 80-63-31-122-22-194 31z" fill="url(#glow)" opacity=".88"/>
  <path d="M54 140c75-52 135-54 203-18 59 31 116 29 198-19-42 73-120 98-213 58-66-28-123-21-188 27z" fill="#d8fff9" opacity=".34"/>
  <circle cx="252" cy="162" r="54" fill="#bffcff" opacity=".22"/>
</svg>
