<svg xmlns="http://www.w3.org/2000/svg" viewBox="0 0 640 420" role="img" aria-label="Dreadclaw monster art">
  <defs>
    <linearGradient id="bg" x1="0" y1="0" x2="1" y2="1"><stop stop-color="#34210f"/><stop offset=".55" stop-color="#111316"/><stop offset="1" stop-color="#050608"/></linearGradient>
    <radialGradient id="fire" cx=".45" cy=".48" r=".54"><stop stop-color="#ffb33d"/><stop offset=".38" stop-color="#9d4d10"/><stop offset="1" stop-color="#050608" stop-opacity="0"/></radialGradient>
  </defs>
  <rect width="640" height="420" fill="url(#bg)"/>
  <rect width="640" height="420" fill="url(#fire)" opacity=".58"/>
  <g fill="#050608" stroke="#d79b34" stroke-width="7" stroke-linejoin="round">
    <path d="M130 285 200 177l85-62 123 19 97 71 10 71-57 56-136 20-116-18z"/>
    <path d="M257 121 302 47l13 85M347 135l73-59-22 80M441 180l96-20-70 56"/>
    <path d="M188 298 116 357l118-27M456 305l77 45-122-14"/>
  </g>
  <g fill="#1a1d20" stroke="#f0c067" stroke-width="5" stroke-linejoin="round">
    <path d="M170 283 231 195l76-45 90 18 75 54 4 45-43 36-111 17-95-15z"/>
    <path d="M274 190 209 245l99-25 83 50-39-74z"/>
  </g>
  <g fill="#ffb33d" opacity=".92">
    <path d="M275 229h28l-18 72 48-91h-31l15-48z"/>
    <circle cx="430" cy="221" r="9"/>
    <path d="M455 242h55l-42 17z"/>
  </g>
  <path d="M0 344c108-38 217-32 323-7 108 25 202 18 317-31v114H0z" fill="#020304" opacity=".68"/>
</svg>
